<?xml version="1.0" encoding="utf-8"?>
<!-- Generator: Adobe Illustrator 24.0.1, SVG Export Plug-In . SVG Version: 6.00 Build 0)  -->
<svg version="1.1" id="Layer_1" xmlns="http://www.w3.org/2000/svg" xmlns:xlink="http://www.w3.org/1999/xlink" x="0px" y="0px"
	 viewBox="0 0 522 522" style="enable-background:new 0 0 522 522;" xml:space="preserve">
<style type="text/css">
	.st0{fill:#FFFFFF;}
	.st1{fill:#010101;}
</style>
<g>
	<path class="st0" d="M221.5,277.5c-8.2-1.2-16.8-1.6-25.4-0.4c-28.2,2.9-54.8,18.8-68.7,43.4c-20.9,36.4-3.3,72.8,23.7,87.1
		c59.3,32.3,136.6-15.1,128.8-74.4C275.9,301.7,251.8,282.8,221.5,277.5z M201.5,362.6c-2.5,13.1-14.7,23.3-29.4,24.1
		c-15.5,1.2-29-10.6-25.4-27c2.4-12.7,14.7-22.9,29.4-24.1C191.7,334.8,204.7,346.6,201.5,362.6z M226,334.4
		c-2.9,12.3-23.7,11.4-20.5-2c0.8-4.5,6.1-8.6,11.5-8.6C222.7,323.7,227.2,328.2,226,334.4z"/>
	<path class="st0" d="M430.5,275.9c-4.5-4.1-8.6-6.9-13.5-10.2c-8.6-5.7-17.2-9-27.4-12.3c-9.8-3.3-11.5-4.9-7.8-14.7
		c2.4-7,4.5-13.1,5.3-21.3c4.5-36.8-25.4-47.9-59.3-45c-15.9,1.2-29.4,5.3-43.4,9.8c-9,2.9-25.8,12.3-29.4,6.5
		c-2-2.9,0.4-7.4,1.2-10.2c5.3-20,7.4-47.9-12.3-60.1c-14.3-9-39.3-6.5-54.4-1.2C107.8,145-16.9,262.8,8.4,356.4
		c5.7,21.3,17.6,37.2,29,48.7c33.9,33.9,86.7,52.8,135.4,59.7c35.6,4.9,72.4,4.5,108-2c58.1-10.6,113.7-36.8,149.7-83.4
		C454.6,348.3,462.4,304.1,430.5,275.9z M357.3,358.5c-19.2,40.9-64.6,64.6-107.2,74.4c-72.4,16.8-150.9-2.5-181.6-48.3
		c-20.9-31.5-12.7-64.2,7.4-89.6c17.2-21.7,46.2-38.9,73.6-47.9c54.8-18,122.7-17.6,173.4,14.3C355.7,282.4,375.3,320.9,357.3,358.5
		z"/>
	<path class="st0" d="M424,220.3c6.9,2,13.9-1.2,17.2-5.3c3.7-4.1,5.3-11.9,6.2-18.4c2.8-27.4-10.6-51.1-32.3-64.6
		c-12.3-7.4-46.2-14.7-56.4-2c-9,11-2.5,27.8,13.1,27.4c9.4-0.4,11.5-1.6,21.7,1.6c9.8,3.3,20,14.3,20.5,27.4
		C414.6,194.9,404.7,214.9,424,220.3z"/>
	<path class="st0" d="M362.6,55c-8.2,0.8-14.7,2-19.2,7c-10.6,11.5-5.3,28.2,9.4,30.7c12.3,2,42.9-7.4,77.3,12.7
		c16,9.8,31.1,25.4,38.9,42.5c20.9,47.4-2,68.7,5.3,85.1c6.2,13.5,24.5,14.7,32.7,4.5c6.1-7.8,9.4-30.7,9.8-40.9
		c2-38.9-11.5-73.2-36-99.8C449.3,62.4,408,50.5,362.6,55z"/>
	<path class="st1" d="M176.1,335.6c-14.7,1.2-27,11.4-29.4,24.1c-3.7,16.4,9.8,28.2,25.4,27c14.7-0.8,27-11,29.4-24.1
		C204.7,346.6,191.7,334.8,176.1,335.6z"/>
	<path class="st1" d="M217,323.7c-5.3,0-10.6,4.1-11.5,8.6c-3.3,13.5,17.6,14.3,20.5,2C227.2,328.2,222.7,323.7,217,323.7z"/>
	<path class="st1" d="M323,261.6c-50.7-31.9-118.6-32.3-173.4-14.3c-27.4,9-56.4,26.2-73.6,47.9c-20,25.4-28.2,58.1-7.4,89.6
		c30.7,45.8,109.2,65,181.6,48.3c42.5-9.8,87.9-33.5,107.2-74.4C375.3,320.9,355.7,282.4,323,261.6z M151.2,407.6
		c-27-14.3-44.6-50.7-23.7-87.1c13.9-24.5,40.5-40.5,68.7-43.4c8.6-1.2,17.2-0.8,25.4,0.4c30.3,5.3,54.4,24.1,58.5,55.6
		C287.8,392.5,210.5,439.9,151.2,407.6z"/>
</g>
</svg>
