<?xml version="1.0" encoding="utf-8"?>
<!-- Generator: Adobe Illustrator 24.0.1, SVG Export Plug-In . SVG Version: 6.00 Build 0)  -->
<svg version="1.1" id="Layer_1" xmlns="http://www.w3.org/2000/svg" xmlns:xlink="http://www.w3.org/1999/xlink" x="0px" y="0px"
	 viewBox="0 0 32 32" style="enable-background:new 0 0 32 32;" xml:space="preserve">
<style type="text/css">
	.st0{fill:#FFFFFF;}
</style>
<title></title>
<g>
	<path class="st0" d="M2.1,25.5c0.9,0.9,2,1.3,3.2,1.3c3.2,0.3,6.8,0.4,10.7,0.4s7.5,0,10.7-0.4c2.5,0,4.6-2.1,4.6-4.6
		c0.3-2.1,0.4-4.1,0.4-6.2c0-2-0.1-4-0.4-6c0-1.2-0.5-2.4-1.3-3.2c-0.9-0.8-2-1.3-3.2-1.3c-3.6-0.3-7.2-0.4-10.8-0.4
		C12.4,5,8.8,5.2,5.3,5.5C4.1,5.6,3,6,2.1,6.8c-0.9,0.9-1.3,2-1.3,3.2c-0.5,4.1-0.5,8.2,0,12.2C0.7,23.5,1.2,24.7,2.1,25.5z
		 M11.3,11.4l9.5,4.7l-9.5,4.7V11.4z"/>
	<polygon points="11.3,11.4 11.3,20.9 20.8,16.2 	"/>
</g>
</svg>
